<svg version="1" xmlns="http://www.w3.org/2000/svg" width="933.333" height="933.333" viewBox="0 0 700.000000 700.000000"><path d="M314.7.6c-.1.1-3.6.5-7.7.8-4.1.4-10.2 1.1-13.5 1.6-3.3.5-7.7 1.2-9.9 1.6-2.1.3-4.8.8-6 1-1.1.2-3.7.7-5.6 1-5.6 1-22.1 4.2-26 4.9-18.9 3.7-21.9 4.6-30.8 8.6-3.5 1.6-6.5 2.9-6.7 2.9-.6 0-20.1 9.3-39.2 18.6-21.8 10.6-35.4 18-56.3 30.2-8 4.7-17.4 10.1-21 12-20.9 11.2-26 15.5-26 22 0 4.6 4.4 9.2 9.6 9.9 6.7.9 8.1 0 61.1-34.4 39.2-25.6 68.4-40.4 98.2-49.8 9.7-3.1 35.2-10 41.1-11.1 1.4-.3 7-1.6 12.5-2.9 5.5-1.2 12-2.6 14.5-3 2.5-.4 5.4-1 6.5-1.2 1.1-.3 12.6-.6 25.5-.8 26.1-.3 33.1.6 48.5 6.3 19.7 7.4 31 13.8 41.4 23.7 11.6 10.9 16.9 24.2 15.6 39.2-.8 10-4 25-6 27.9-2.3 3.5-4.4 4.7-28.2 15.3-40.2 18-57.8 27.6-58.6 31.8-.7 3.6 3.1 6.9 7.1 6.4 1.2-.2 33-14.8 54.7-25.1 8.1-3.9 13.5-5.7 13.5-4.6 0 1.2-8.6 14.6-16.8 26.1-9.2 12.8-15.7 21-23.2 29-14.3 15.3-19.2 20.5-23.6 25.5-2.7 3.1-8.1 9.2-12 13.5-3.9 4.4-8.6 9.8-10.5 12-5 5.9-10.5 12-18.6 20.4-3.9 4.2-9.5 10.1-12.3 13.1-2.9 3-10.9 11.4-17.8 18.6-7 7.1-16.1 16.8-20.2 21.4-16.2 18-19.8 21.9-30 32-5.8 5.8-12.3 11.9-14.5 13.5-2.2 1.6-4.2 3.2-4.5 3.5-.3.3-4.9 3.9-10.4 8-11 8.2-30 26-32.2 30.2-2 3.9-1.7 6.5.9 8 3.7 2 3.3 2.3 28.7-16.2 10.6-7.7 30.5-21.1 42.5-28.6 28.6-17.9 62.2-32.2 84-35.7 1.7-.3 5-1 7.5-1.6 2.5-.5 7.2-1.3 10.5-1.6 3.3-.4 6.2-.8 6.5-1 .4-.2 8.9-.5 19.1-.6l18.4-.3 6.7 3.4c7.3 3.6 15.6 11.1 26.2 23.5 14.1 16.6 15.6 22.2 15.6 58.5-.1 20.1-.3 24.4-1.6 32.5-1 6.3-2.9 9.1-7.6 11-2.4.9-20 7.1-39.3 13.6-19.2 6.5-39.5 13.4-45 15.4-5.5 1.9-21.2 7.3-35 11.9-39.4 13.3-127.5 52.3-149.5 66.4-17.6 11.2-55.9 58.9-68 84.7-5 10.7-4.9 24 .2 34.3 2.8 5.4 13.9 17.7 18.2 19.9 2.8 1.4 10.9 1.9 16.1.9 1.1-.2 5.6-.7 10-1 15.5-1.3 18.1-1.7 24-3.2 8.7-2.2 57.4-26.5 69.5-34.7 8.8-6 91.7-68.3 108-81.1 25.5-20.1 37.4-31.3 60.1-56.5 5.2-5.8 10.5-11.6 11.8-13 6-6.4 24.4-33.8 34.6-51.4 1.5-2.6 3.5-5.1 4.4-5.6.9-.5 14.6-6.1 30.5-12.6 27.7-11.1 34.6-14.1 34.6-14.9 0-.2-5.7 1.5-12.7 3.9-41 13.7-49.1 16.2-50.7 15.3-.9-.5-1.5-1.2-1.2-1.6.3-.6 1.2-7.3 2.2-16.2 1.6-16.1 2.2-39.6 1-47.5-1.6-11.9-6.8-22.9-16.9-36.5-11.4-15.3-20.7-24-30.9-29l-8.8-4.3-24.2.2c-32.3.2-42.2 1.6-65.8 9.3-12 3.9-42.9 16.6-55.5 22.7-2 1-.1-1.2 16.6-19 6.9-7.4 14.5-15.6 17-18.4 2.4-2.7 11-11.7 19-20 8.1-8.2 18.6-19.1 23.4-24 4.8-5 19.6-20 32.9-33.5 30.4-30.9 35.3-36.2 47.1-51 11-13.9 12.1-15.5 23.4-32.5 6.2-9.4 12.5-18.2 13.9-19.7 2.1-2.3 27.5-15.8 29.6-15.8.7 0 39.2-17.2 45.3-20.2 4.5-2.2 6.2-5.6 3.7-7.4-1.7-1.4-5.9-.6-15.4 2.9-3.6 1.4-16.8 6.3-29.5 11-12.6 4.7-23.9 8.7-25 8.9-2.3.4-2.4-1.1-1-12.7 1.7-13 1.1-21.5-2-30.1-3.7-10.4-6.5-14.6-14.3-22.2-8.7-8.4-16.6-14-28.7-20.1-18.3-9.2-37.9-14.6-56.7-15.7-9.7-.5-39.7-1.1-40.1-.8zm111.4 470.9c-9.5 17.7-21 33.8-35.3 49.5-13.9 15.2-41.8 42.6-55.3 54.1-2.1 1.9-4.7 4.1-5.5 4.9-.9.8-2.7 2.4-4.1 3.5-5.2 4.3-39.5 33.1-41.4 34.7-14 11.9-36 27.6-49.8 35.4-12 6.9-42.5 22.7-54.5 28.2-9.6 4.4-24.5 6.4-49.6 6.6h-9.9l-4.3-4.7c-6.1-6.8-9.5-14.1-9.5-20.8-.1-9.5 4.3-19.5 17.9-40.9 17.6-27.6 20.5-31 38.4-45.2 11.6-9.1 15.5-11.5 58.4-35.9 23.8-13.5 52.3-28.1 72.4-36.9 12-5.3 25.8-9.8 51.5-16.9 12.1-3.3 26.7-7.4 32.5-9.1 5.8-1.7 11.2-3.3 12-3.5 3.7-.9 26.2-8.6 33-11.3 4.1-1.6 7.6-2.6 7.8-2.1.2.5-1.9 5.1-4.7 10.4zM622.4 345.2c-4.6 6.1-15.8 17.7-23.9 24.7-3.3 2.9-14.7 13.1-24 21.4-1.5 1.4-23.2 18-25.4 19.4-.2.2-.2.5.1.8.9 1 28.7-13.4 38.9-20.1 18.3-12 45.9-40 45.9-46.6 0-2.2-3.4-5.8-5.4-5.8-.8 0-3.6 2.8-6.2 6.2z"/></svg>